<svg width="27" height="27" viewBox="0 0 27 27" fill="none" xmlns="http://www.w3.org/2000/svg">
<path fill-rule="evenodd" clip-rule="evenodd" d="M13.5 2.7C7.53533 2.7 2.7 7.53533 2.7 13.5C2.7 19.4647 7.53532 24.3 13.5 24.3C19.4647 24.3 24.3 19.4647 24.3 13.5C24.3 7.53532 19.4647 2.7 13.5 2.7ZM0 13.5C0 6.04416 6.04416 0 13.5 0C20.9559 0 27 6.04416 27 13.5C27 20.9559 20.9559 27 13.5 27C6.04416 27 0 20.9559 0 13.5Z" fill="#D835C5" fill-opacity="0.27"/>
<path fill-rule="evenodd" clip-rule="evenodd" d="M12.1499 1.35C12.1499 0.604416 12.7543 0 13.4999 0C20.9558 0 26.9999 6.04416 26.9999 13.5C26.9999 14.2456 26.3955 14.85 25.6499 14.85C24.9043 14.85 24.2999 14.2456 24.2999 13.5C24.2999 7.53532 19.4646 2.7 13.4999 2.7C12.7543 2.7 12.1499 2.09558 12.1499 1.35Z" fill="#A11CF3"/>
</svg>
